<?xml version="1.0" encoding="UTF-8"?>
<svg version="1.1" xmlns="http://www.w3.org/2000/svg" width="246" height="266">
<path d="M0 0 C81.18 0 162.36 0 246 0 C246 87.78 246 175.56 246 266 C164.82 266 83.64 266 0 266 C0 178.22 0 90.44 0 0 Z " fill="#F0E6F8" transform="translate(0,0)"/>
<path d="M0 0 C0.66 0 1.32 0 2 0 C3.08797745 3.51941441 4.16945271 7.04079793 5.25 10.5625 C5.55035156 11.53380859 5.85070312 12.50511719 6.16015625 13.50585938 C8.64889577 21.63397673 10.80521825 29.76956842 13 38 C25.21 38.99 37.42 39.98 50 41 C50 41.66 50 42.32 50 43 C48.9996875 43.54785156 47.999375 44.09570312 46.96875 44.66015625 C42.92378994 46.97257934 39.22442834 49.64609855 35.5 52.4375 C34.23990332 53.37412856 32.97948799 54.31032859 31.71875 55.24609375 C30.80416016 55.92647705 30.80416016 55.92647705 29.87109375 56.62060547 C26.9388738 58.78227597 23.97025124 60.89096851 21 63 C21.49564199 71.09548582 24.37634048 78.40181785 27 86 C30.44853494 96.31855748 30.44853494 96.31855748 30 102 C27.04516665 100.62678919 24.58495618 99.03258055 22.0234375 97.0234375 C20.90050293 96.14558594 20.90050293 96.14558594 19.75488281 95.25 C18.96952148 94.63125 18.18416016 94.0125 17.375 93.375 C16.56901367 92.74851562 15.76302734 92.12203125 14.93261719 91.4765625 C11.49328802 88.79491076 8.07579935 86.11232828 4.8046875 83.2265625 C3.96164063 82.49179688 3.11859375 81.75703125 2.25 81 C1.55390625 80.360625 0.8578125 79.72125 0.140625 79.0625 C-2.01355855 77.73201803 -2.01355855 77.73201803 -4.68359375 78.453125 C-9.14116619 80.5322754 -13.18964439 83.07747699 -17.3125 85.75 C-18.11623047 86.26304688 -18.91996094 86.77609375 -19.74804688 87.3046875 C-24.57777181 90.39757652 -29.34857167 93.56661766 -34.07885742 96.80957031 C-36 98 -36 98 -39 99 C-38.41943701 94.23938345 -36.92263237 90.33836338 -35 86 C-33.45314806 82.4397405 -31.91458954 78.87590482 -30.375 75.3125 C-29.96765625 74.37599609 -29.5603125 73.43949219 -29.140625 72.47460938 C-28.75132813 71.57162109 -28.36203125 70.66863281 -27.9609375 69.73828125 C-27.60821777 68.92399658 -27.25549805 68.10971191 -26.89208984 67.27075195 C-26.07470371 65.19015304 -25.48280892 63.17951064 -25 61 C-25.44988281 60.61070313 -25.89976563 60.22140625 -26.36328125 59.8203125 C-31.40888529 55.43195147 -36.36382319 50.95145859 -41.30078125 46.44140625 C-44.36836332 43.66682044 -47.48794512 40.95916498 -50.63671875 38.27734375 C-51.08660156 37.85582031 -51.53648438 37.43429688 -52 37 C-52 36.67 -52 36.34 -52 36 C-47.91668235 35.97049626 -43.8333928 35.95303465 -39.75 35.9375 C-38.04070312 35.92493164 -38.04070312 35.92493164 -36.296875 35.91210938 C-28.81103602 35.89084279 -21.44799543 36.24687962 -14 37 C-13.92394531 36.22140625 -13.84789062 35.4428125 -13.76953125 34.640625 C-12.72493694 29.69868642 -10.7334719 25.35261839 -8.6875 20.75 C-7.8985152 18.95366228 -7.11075012 17.15678832 -6.32421875 15.359375 C-5.93927246 14.48087891 -5.55432617 13.60238281 -5.15771484 12.69726562 C-3.35527659 8.49791138 -1.66944759 4.2536767 0 0 Z " fill="#CB6398" transform="translate(112,7)"/>
<path d="M0 0 C2.31 0 4.62 0 7 0 C7 0.66 7 1.32 7 2 C7.99 1.34 8.98 0.68 10 0 C14.27674407 -0.56485299 16.54778366 -0.22199711 20.4375 1.6875 C23.48938241 4.53428279 23.52255285 7.45421291 23.6875 11.5 C23.38918067 18.43984962 23.38918067 18.43984962 20.5625 21.25 C19.716875 21.8275 18.87125 22.405 18 23 C17.67 23.33 17.34 23.66 17 24 C13.52743085 24.30867281 11.6127712 24.38701339 8.625 22.5 C7.820625 21.7575 7.820625 21.7575 7 21 C7 23.64 7 26.28 7 29 C4.69 29 2.38 29 0 29 C0 19.43 0 9.86 0 0 Z " fill="#824DAC" transform="translate(74,153)"/>
<path d="M0 0 C3.18970398 1.73983854 5.44695493 3.44695493 8 6 C8.125 8.625 8.125 8.625 8 11 C4.625 11.1875 4.625 11.1875 1 11 C0.34 10.01 -0.32 9.02 -1 8 C-4.08365871 7.7497843 -4.08365871 7.7497843 -7 8 C-7 8.99 -7 9.98 -7 11 C-6.26394531 11.15855469 -5.52789062 11.31710938 -4.76953125 11.48046875 C5.69268327 13.98200221 5.69268327 13.98200221 9 19 C9.68010386 23.23175736 9.48450361 25.20402978 7.25 28.875 C3.34035131 32.56744598 -1.32229106 32.40516495 -6.51953125 32.34375 C-10.72868702 31.76043393 -12.26224634 30.22914534 -15 27 C-15.875 23.6875 -15.875 23.6875 -16 21 C-13.36 21 -10.72 21 -8 21 C-7.67 21.99 -7.34 22.98 -7 24 C-4.69 24 -2.38 24 0 24 C0 23.01 0 22.02 0 21 C-0.81984375 20.76925781 -1.6396875 20.53851563 -2.484375 20.30078125 C-11.24946695 17.64818763 -11.24946695 17.64818763 -14.75 14.625 C-16.30800716 11.35318497 -16.67092861 9.57828594 -16 6 C-11.12246012 0.22396593 -7.34413269 -0.92573101 0 0 Z " fill="#8A50A9" transform="translate(116,145)"/>
<path d="M0 0 C1.01964844 -0.01933594 2.03929687 -0.03867188 3.08984375 -0.05859375 C6.90192839 0.57758857 8.5043328 1.53855505 11.0625 4.4375 C11.55078125 7.890625 11.55078125 7.890625 11.375 11.6875 C11.30732422 13.58242187 11.30732422 13.58242187 11.23828125 15.515625 C11.18027344 16.47984375 11.12226563 17.4440625 11.0625 18.4375 C11.7225 18.4375 12.3825 18.4375 13.0625 18.4375 C13.0625 20.0875 13.0625 21.7375 13.0625 23.4375 C10.7525 23.4375 8.4425 23.4375 6.0625 23.4375 C6.0625 22.7775 6.0625 22.1175 6.0625 21.4375 C5.216875 21.9325 4.37125 22.4275 3.5 22.9375 C-0.38064463 24.6308722 -2.74932814 24.98041117 -6.9375 24.4375 C-9.375 22.8125 -9.375 22.8125 -10.9375 20.4375 C-11.5 17.4375 -11.5 17.4375 -10.9375 14.4375 C-8.03932904 10.97839272 -5.45571011 10.18614643 -1.125 9.6875 C0.2697304 9.58738885 1.66550686 9.49837116 3.0625 9.4375 C2.7325 8.4475 2.4025 7.4575 2.0625 6.4375 C0.7425 6.4375 -0.5775 6.4375 -1.9375 6.4375 C-2.2675 7.0975 -2.5975 7.7575 -2.9375 8.4375 C-5.5775 8.4375 -8.2175 8.4375 -10.9375 8.4375 C-10.62109818 5.51078317 -10.4010626 3.89133751 -8.26171875 1.796875 C-5.34393678 0.09034033 -3.36624951 0.00424496 0 0 Z " fill="#9351A2" transform="translate(155.9375,152.5625)"/>
<path d="M0 0 C8.25 0 16.5 0 25 0 C25 1.98 25 3.96 25 6 C22.03 6 19.06 6 16 6 C16 13.92 16 21.84 16 30 C13.69 30 11.38 30 9 30 C9 22.08 9 14.16 9 6 C6.03 6 3.06 6 0 6 C0 4.02 0 2.04 0 0 Z " fill="#794AB2" transform="translate(35,146)"/>
<path d="M0 0 C2.31 0 4.62 0 7 0 C7 1.65 7 3.3 7 5 C9.31 5 11.62 5 14 5 C14 6.98 14 8.96 14 11 C12.02 11 10.04 11 8 11 C8.33 14.63 8.66 18.26 9 22 C10.32 22.33 11.64 22.66 13 23 C13 24.65 13 26.3 13 28 C11.3973218 28.10824843 9.79254252 28.18570645 8.1875 28.25 C7.29417969 28.29640625 6.40085938 28.3428125 5.48046875 28.390625 C3 28 3 28 1.1875 26.40625 C-0.38729242 23.21522325 -0.29372947 20.79098223 -0.1875 17.25 C-0.16042969 16.07953125 -0.13335937 14.9090625 -0.10546875 13.703125 C-0.07066406 12.81109375 -0.03585938 11.9190625 0 11 C-1.32 11 -2.64 11 -4 11 C-4 9.02 -4 7.04 -4 5 C-2.68 5 -1.36 5 0 5 C0 3.35 0 1.7 0 0 Z " fill="#8E50A5" transform="translate(130,148)"/>
<path d="M0 0 C2.31 0 4.62 0 7 0 C7 0.66 7 1.32 7 2 C7.99 1.34 8.98 0.68 10 0 C12.6875 -0.125 12.6875 -0.125 15 0 C15 2.31 15 4.62 15 7 C13.02 7.33 11.04 7.66 9 8 C8.67 13.28 8.34 18.56 8 24 C5.36 24 2.72 24 0 24 C0 16.08 0 8.16 0 0 Z " fill="#9B58A3" transform="translate(171,153)"/>
<path d="M0 0 C2.5 1.75 2.5 1.75 4 4 C4 5.32 4 6.64 4 8 C2.35 7.67 0.7 7.34 -1 7 C-1 6.34 -1 5.68 -1 5 C-2.65 5 -4.3 5 -6 5 C-6 6.32 -6 7.64 -6 9 C-5.0925 9.12375 -4.185 9.2475 -3.25 9.375 C-0.41029677 9.92109677 1.52590591 10.57263803 4 12 C4.09765625 18.15234375 4.09765625 18.15234375 4 20 C2.19728218 21.80271782 -0.44408749 21.21502284 -2.875 21.25 C-4.47988281 21.28867188 -4.47988281 21.28867188 -6.1171875 21.328125 C-9 21 -9 21 -10.8828125 19.734375 C-12 18 -12 18 -12 14 C-10.35 14 -8.7 14 -7 14 C-6.67 14.66 -6.34 15.32 -6 16 C-3.47266765 16.65555119 -3.47266765 16.65555119 -1 17 C-1 16.01 -1 15.02 -1 14 C-1.63808594 13.79503906 -2.27617188 13.59007813 -2.93359375 13.37890625 C-3.75988281 13.10949219 -4.58617188 12.84007812 -5.4375 12.5625 C-6.26121094 12.29566406 -7.08492188 12.02882813 -7.93359375 11.75390625 C-10 11 -10 11 -11 10 C-11.4534413 3.87854251 -11.4534413 3.87854251 -10 1.0625 C-6.76330107 -0.65699631 -3.52374622 -0.64519297 0 0 Z " fill="#F8ECF2" transform="translate(114,51)"/>
<path d="M0 0 C2.64 0 5.28 0 8 0 C8 7.59 8 15.18 8 23 C5.36 23 2.72 23 0 23 C0 15.41 0 7.82 0 0 Z " fill="#8555B3" transform="translate(63,153)"/>
<path d="M0 0 C0.66 0 1.32 0 2 0 C2 0.66 2 1.32 2 2 C4.60582371 2.93065133 5.64198224 3.14917407 8.25 2.0625 C9.11625 1.5365625 9.11625 1.5365625 10 1 C9 3 8 5 7 7 C7.99 7.33 8.98 7.66 10 8 C10 8.66 10 9.32 10 10 C7.69 9.67 5.38 9.34 3 9 C3 7.02 3 5.04 3 3 C1.68 3 0.36 3 -1 3 C-1 4.98 -1 6.96 -1 9 C-0.01 9 0.98 9 2 9 C2 9.99 2 10.98 2 12 C4.64 12 7.28 12 10 12 C10 12.33 10 12.66 10 13 C8.35 13.33 6.7 13.66 5 14 C6.98 14.99 8.96 15.98 11 17 C11 17.66 11 18.32 11 19 C7.62537285 18.45276317 5.91765 17.9451 3 16 C2.67 16.99 2.34 17.98 2 19 C1.34 19 0.68 19 0 19 C-0.33 18.01 -0.66 17.02 -1 16 C-1.78375 16.495 -2.5675 16.99 -3.375 17.5 C-6 19 -6 19 -8 19 C-8 18.01 -8 17.02 -8 16 C-6.02 15.67 -4.04 15.34 -2 15 C-2 14.34 -2 13.68 -2 13 C-3.98 13 -5.96 13 -8 13 C-8 12.67 -8 12.34 -8 12 C-5.36 12 -2.72 12 0 12 C0 11.34 0 10.68 0 10 C-3.05263664 9.01879536 -4.94736336 9.01879536 -8 10 C-7.67 9.01 -7.34 8.02 -7 7 C-5.68 7 -4.36 7 -3 7 C-3 5.35 -3 3.7 -3 2 C-2.01 2 -1.02 2 0 2 C0 1.34 0 0.68 0 0 Z " fill="#7A73DD" transform="translate(101,205)"/>
<path d="M0 0 C2.475 0.495 2.475 0.495 5 1 C5 1.99 5 2.98 5 4 C3.84371094 4.29003906 3.84371094 4.29003906 2.6640625 4.5859375 C1.66117188 4.84632813 0.65828125 5.10671875 -0.375 5.375 C-1.87160156 5.75785156 -1.87160156 5.75785156 -3.3984375 6.1484375 C-6.12541015 6.82404319 -6.12541015 6.82404319 -8 9 C-8.67940467 11.42715206 -8.67940467 11.42715206 -9.125 14.125 C-9.41375 15.73375 -9.7025 17.3425 -10 19 C-13.3 19 -16.6 19 -20 19 C-20 18.67 -20 18.34 -20 18 C-17.03 18 -14.06 18 -11 18 C-11 16.35 -11 14.7 -11 13 C-12.65 12.67 -14.3 12.34 -16 12 C-16 8.37 -16 4.74 -16 1 C-13.69 1 -11.38 1 -9 1 C-9 1.66 -9 2.32 -9 3 C-6.36 3 -3.72 3 -1 3 C-0.67 2.01 -0.34 1.02 0 0 Z " fill="#E5D7EF" transform="translate(154,158)"/>
<path d="M0 0 C0.66 0 1.32 0 2 0 C2 1.32 2 2.64 2 4 C3.65 4 5.3 4 7 4 C7 4.66 7 5.32 7 6 C5.02 6 3.04 6 1 6 C1 6.99 1 7.98 1 9 C2.299375 8.979375 3.59875 8.95875 4.9375 8.9375 C6.29165633 8.91600546 7.64756083 8.92851801 9 9 C10 10 10 10 10.25 12.9375 C10.1675 13.948125 10.085 14.95875 10 16 C6.33134759 18.44576827 4.32799657 18.23607254 0 18 C-0.66 17.67 -1.32 17.34 -2 17 C-2 15.02 -2 13.04 -2 11 C-2.99 11 -3.98 11 -5 11 C-5 10.34 -5 9.68 -5 9 C-3.68 9 -2.36 9 -1 9 C-1 8.01 -1 7.02 -1 6 C-1.99 6 -2.98 6 -4 6 C-4 5.34 -4 4.68 -4 4 C-2.68 4 -1.36 4 0 4 C0 2.68 0 1.36 0 0 Z " fill="#8D86E2" transform="translate(36,205)"/>
<path d="M0 0 C0.66 0 1.32 0 2 0 C2 1.32 2 2.64 2 4 C3.32 4 4.64 4 6 4 C6 4.66 6 5.32 6 6 C4.35 6 2.7 6 1 6 C1 6.99 1 7.98 1 9 C2.299375 8.979375 3.59875 8.95875 4.9375 8.9375 C6.29165633 8.91600546 7.64756083 8.92851801 9 9 C10 10 10 10 10.25 12.9375 C10.1675 13.948125 10.085 14.95875 10 16 C6.32653229 18.44897847 4.33643601 18.31537716 0 18 C-2 16 -2 16 -2.125 13.375 C-2.08375 12.59125 -2.0425 11.8075 -2 11 C-2.99 11 -3.98 11 -5 11 C-5 10.34 -5 9.68 -5 9 C-3.68 9 -2.36 9 -1 9 C-1 8.01 -1 7.02 -1 6 C-1.99 6 -2.98 6 -4 6 C-4 5.34 -4 4.68 -4 4 C-2.68 4 -1.36 4 0 4 C0 2.68 0 1.36 0 0 Z " fill="#9F98E7" transform="translate(184,205)"/>
<path d="M0 0 C0.99 0 1.98 0 3 0 C3 0.66 3 1.32 3 2 C4.98 2 6.96 2 9 2 C8.67 2.99 8.34 3.98 8 5 C5.36 5 2.72 5 0 5 C0 5.66 0 6.32 0 7 C3.63 7 7.26 7 11 7 C10.67 7.99 10.34 8.98 10 10 C8.66923011 10.34342449 7.33568021 10.67619874 6 11 C5.01 12.485 5.01 12.485 4 14 C4 13.34 4 12.68 4 12 C2.68 13.32 1.36 14.64 0 16 C3.3 16 6.6 16 10 16 C10 16.66 10 17.32 10 18 C6.37 18 2.74 18 -1 18 C-1.33 16.35 -1.66 14.7 -2 13 C-0.5625 11.1875 -0.5625 11.1875 1 10 C-1.38564077 10.57584432 -3.66682784 11.22227595 -6 12 C-4.79618552 9.50638429 -3.54571278 7.31856917 -2 5 C-2.99 5 -3.98 5 -5 5 C-5 4.34 -5 3.68 -5 3 C-3.35 3 -1.7 3 0 3 C0 2.01 0 1.02 0 0 Z " fill="#827BDF" transform="translate(15,205)"/>
<path d="M0 0 C0.99 0 1.98 0 3 0 C3.33 1.32 3.66 2.64 4 4 C5.65 4 7.3 4 9 4 C8.01 5.485 8.01 5.485 7 7 C6.83300768 10.12521833 6.83300768 10.12521833 7 13 C5.906875 12.814375 4.81375 12.62875 3.6875 12.4375 C0.06375867 11.7421932 0.06375867 11.7421932 -3 13 C-3.309375 11.906875 -3.61875 10.81375 -3.9375 9.6875 C-4.58337897 7.44592006 -5.2623117 5.2130649 -6 3 C-4.02 3 -2.04 3 0 3 C0 2.01 0 1.02 0 0 Z " fill="#EDD378" transform="translate(160,0)"/>
<path d="M0 0 C0.99 0 1.98 0 3 0 C3 1.65 3 3.3 3 5 C6.465 4.505 6.465 4.505 10 4 C10 4.99 10 5.98 10 7 C9.06027344 7.25523437 9.06027344 7.25523437 8.1015625 7.515625 C6.87566406 7.87914062 6.87566406 7.87914062 5.625 8.25 C4.81289062 8.48203125 4.00078125 8.7140625 3.1640625 8.953125 C0.50821227 9.96622064 0.50821227 9.96622064 -1 14 C2.96 14 6.92 14 11 14 C11 14.99 11 15.98 11 17 C9.04196493 17.05389087 7.08351091 17.09274217 5.125 17.125 C3.48917969 17.15980469 3.48917969 17.15980469 1.8203125 17.1953125 C-1 17 -1 17 -3 15 C-3.125 12.375 -3.125 12.375 -3 10 C-1.68 9.34 -0.36 8.68 1 8 C0.67 5.36 0.34 2.72 0 0 Z " fill="#8A83E2" transform="translate(225,206)"/>
<path d="M0 0 C0.66 0 1.32 0 2 0 C2.33 1.65 2.66 3.3 3 5 C6.465 4.505 6.465 4.505 10 4 C10 4.99 10 5.98 10 7 C9.06027344 7.25523437 9.06027344 7.25523437 8.1015625 7.515625 C6.87566406 7.87914062 6.87566406 7.87914062 5.625 8.25 C4.81289062 8.48203125 4.00078125 8.7140625 3.1640625 8.953125 C0.50821227 9.96622064 0.50821227 9.96622064 -1 14 C2.96 14 6.92 14 11 14 C11 14.99 11 15.98 11 17 C9.04233719 17.08082094 7.08373272 17.13910778 5.125 17.1875 C3.48917969 17.23970703 3.48917969 17.23970703 1.8203125 17.29296875 C0.88960938 17.19628906 -0.04109375 17.09960938 -1 17 C-3 14 -3 14 -2.625 11.3125 C-2.41875 10.549375 -2.2125 9.78625 -2 9 C-1.01 8.67 -0.02 8.34 1 8 C0.67 5.36 0.34 2.72 0 0 Z " fill="#877FE0" transform="translate(77,206)"/>
<path d="M0 0 C2.5 0.125 2.5 0.125 3.5 1.125 C3.66796875 3.12109375 3.66796875 3.12109375 3.6875 5.5625 C3.70167969 6.36558594 3.71585937 7.16867188 3.73046875 7.99609375 C3.5 10.125 3.5 10.125 1.5 12.125 C-2.03571429 11.58928571 -2.03571429 11.58928571 -3.5 10.125 C-3.5979057 8.62761876 -3.62974864 7.12557108 -3.625 5.625 C-3.62757812 4.8103125 -3.63015625 3.995625 -3.6328125 3.15625 C-3.43435342 0.12099356 -3.05615366 0.15280768 0 0 Z " fill="#EADEF4" transform="translate(85.5,158.875)"/>
<path d="M0 0 C0.66 0 1.32 0 2 0 C2 0.99 2 1.98 2 3 C3.32 3 4.64 3 6 3 C6 3.99 6 4.98 6 6 C5.34 6 4.68 6 4 6 C4.33 7.65 4.66 9.3 5 11 C3.6078125 10.7215625 3.6078125 10.7215625 2.1875 10.4375 C-1.01343771 9.75876119 -1.01343771 9.75876119 -4 11 C-3.979375 10.236875 -3.95875 9.47375 -3.9375 8.6875 C-3.87057159 5.89814214 -3.87057159 5.89814214 -5 3 C-3.68 3 -2.36 3 -1 3 C-0.67 2.01 -0.34 1.02 0 0 Z " fill="#A2A4ED" transform="translate(51,17)"/>
<path d="M0 0 C0.66 0 1.32 0 2 0 C2 4.95 2 9.9 2 15 C8.73128685 13.88753072 8.73128685 13.88753072 10.4375 10.875 C10.623125 10.25625 10.80875 9.6375 11 9 C11.66 9 12.32 9 13 9 C12.62376963 11.63361256 11.94785432 13.07220172 10.375 15.25 C7.14984047 17.62643334 4.91041569 17.36890714 1 17 C0 16 0 16 -0.09765625 12.40234375 C-0.0909822 10.91403133 -0.07902183 9.42573568 -0.0625 7.9375 C-0.05798828 7.17888672 -0.05347656 6.42027344 -0.04882812 5.63867188 C-0.0370068 3.75908129 -0.01907078 1.87953101 0 0 Z " fill="#7E77DF" transform="translate(118,206)"/>
<path d="M0 0 C1.98 0 3.96 0 6 0 C5.83628906 0.56203125 5.67257813 1.1240625 5.50390625 1.703125 C4.97135003 4.13059056 4.90101319 6.26889681 4.9375 8.75 C4.95103516 9.94882813 4.95103516 9.94882813 4.96484375 11.171875 C4.97644531 11.77515625 4.98804688 12.3784375 5 13 C3.35 12.67 1.7 12.34 0 12 C0 8.04 0 4.08 0 0 Z " fill="#B0A8E9" transform="translate(0,211)"/>
<path d="M0 0 C0.5625 1.9375 0.5625 1.9375 1 4 C0 5 0 5 -3.5625 5.0625 C-4.696875 5.041875 -5.83125 5.02125 -7 5 C-7.33 3.68 -7.66 2.36 -8 1 C-10.64 1 -13.28 1 -16 1 C-16 0.67 -16 0.34 -16 0 C-10.03241883 -2.28545662 -6.07806891 -1.79172099 0 0 Z " fill="#E4D6EF" transform="translate(116,165)"/>
<path d="M0 0 C1.98 0 3.96 0 6 0 C6.66 1.32 7.32 2.64 8 4 C10.31 4 12.62 4 15 4 C15 3.01 15 2.02 15 1 C15.66 1 16.32 1 17 1 C16.67 2.32 16.34 3.64 16 5 C14.329375 5.2165625 14.329375 5.2165625 12.625 5.4375 C9.17857953 5.78372035 9.17857953 5.78372035 7 7 C5.0546875 6.44140625 5.0546875 6.44140625 2.875 5.5625 C2.15054688 5.27503906 1.42609375 4.98757812 0.6796875 4.69140625 C0.12539062 4.46324219 -0.42890625 4.23507813 -1 4 C-0.67 2.68 -0.34 1.36 0 0 Z " fill="#E4D5EF" transform="translate(109,152)"/>
<path d="M0 0 C2 2 2 2 2.375 4.9375 C2 8 2 8 0.3125 9.875 C-2.33270547 11.16185671 -4.09433826 11.24213848 -7 11 C-7 10.34 -7 9.68 -7 9 C-6.030625 8.7525 -5.06125 8.505 -4.0625 8.25 C-2.5465625 7.63125 -2.5465625 7.63125 -1 7 C-0.67 5.68 -0.34 4.36 0 3 C-3.63 3 -7.26 3 -11 3 C-11 2.34 -11 1.68 -11 1 C-7.07703567 -0.30765478 -4.13997567 -0.1971417 0 0 Z " fill="#8D85E1" transform="translate(64,212)"/>
<path d="M0 0 C0.99 0.66 1.98 1.32 3 2 C3.4375 4.9375 3.4375 4.9375 3 8 C0.7793949 10.467339 -0.43569203 10.96152446 -3.75 11.1875 C-4.4925 11.125625 -5.235 11.06375 -6 11 C-6 10.34 -6 9.68 -6 9 C-5.030625 8.7525 -4.06125 8.505 -3.0625 8.25 C-1.5465625 7.63125 -1.5465625 7.63125 0 7 C0.33 5.68 0.66 4.36 1 3 C-2.63 3 -6.26 3 -10 3 C-10 2.34 -10 1.68 -10 1 C-6.47005387 -0.17664871 -3.70544587 -0.19850603 0 0 Z " fill="#8D86E2" transform="translate(211,212)"/>
<path d="M0 0 C0.66 0 1.32 0 2 0 C2 1.32 2 2.64 2 4 C3.32 4 4.64 4 6 4 C6 4.66 6 5.32 6 6 C4.35 6 2.7 6 1 6 C1 7.32 1 8.64 1 10 C2.32 10.33 3.64 10.66 5 11 C3.35 11 1.7 11 0 11 C-0.33 12.32 -0.66 13.64 -1 15 C-1 13.68 -1 12.36 -1 11 C-2.32 11 -3.64 11 -5 11 C-5 10.34 -5 9.68 -5 9 C-3.68 9 -2.36 9 -1 9 C-1 8.01 -1 7.02 -1 6 C-1.99 6 -2.98 6 -4 6 C-4 5.34 -4 4.68 -4 4 C-2.68 4 -1.36 4 0 4 C0 2.68 0 1.36 0 0 Z " fill="#867FE0" transform="translate(184,205)"/>
<path d="M0 0 C1.32 0 2.64 0 4 0 C4 1.98 4 3.96 4 6 C4.598125 5.79375 5.19625 5.5875 5.8125 5.375 C8 5 8 5 11 7 C11.33 6.34 11.66 5.68 12 5 C12 6.65 12 8.3 12 10 C9.03 9.67 6.06 9.34 3 9 C3 8.01 3 7.02 3 6 C2.01 6 1.02 6 0 6 C0 4.02 0 2.04 0 0 Z " fill="#A9A1E8" transform="translate(100,208)"/>
<path d="M0 0 C-1.39332574 3.36720387 -2.9789286 4.9859524 -6 7 C-4.49961812 10.81915388 -2.16734582 12.49946383 1 15 C1 15.66 1 16.32 1 17 C-3.04420651 15.22054913 -6.46078487 12.60470327 -10 10 C-9.43867066 6.4628562 -8.30442253 5.00738321 -5.5625 2.75 C-4.94503906 2.22921875 -4.32757813 1.7084375 -3.69140625 1.171875 C-2 0 -2 0 0 0 Z " fill="#7972DD" transform="translate(148,206)"/>
<path d="M0 0 C7.30434783 -0.48695652 7.30434783 -0.48695652 10.5 1.75 C12 4 12 4 12 8 C10.35 7.67 8.7 7.34 7 7 C7 6.34 7 5.68 7 5 C5.35 5 3.7 5 2 5 C2.33 4.01 2.66 3.02 3 2 C2.01 1.34 1.02 0.68 0 0 Z " fill="#F4DFEA" transform="translate(106,51)"/>
<path d="M0 0 C2.64 0 5.28 0 8 0 C8 1.98 8 3.96 8 6 C5.36 6 2.72 6 0 6 C0 4.02 0 2.04 0 0 Z " fill="#895AB6" transform="translate(63,145)"/>
<path d="M0 0 C0.66 0 1.32 0 2 0 C1.84660156 0.50015625 1.69320312 1.0003125 1.53515625 1.515625 C0.80542604 4.90327766 0.63643523 8.29961519 0.4375 11.75 C0.39431641 12.44738281 0.35113281 13.14476562 0.30664062 13.86328125 C0.20110404 15.57531922 0.1001009 17.28763561 0 19 C-0.66 19 -1.32 19 -2 19 C-2 16.03 -2 13.06 -2 10 C-2.66 10 -3.32 10 -4 10 C-3.29445932 6.33118845 -1.72264494 3.29549466 0 0 Z " fill="#7F78DF" transform="translate(244,205)"/>
<path d="M0 0 C0.99 0 1.98 0 3 0 C3 0.66 3 1.32 3 2 C4.98 2 6.96 2 9 2 C8.67 2.99 8.34 3.98 8 5 C6.39679026 5.19551338 4.79237014 5.38111983 3.1875 5.5625 C2.29417969 5.66691406 1.40085937 5.77132812 0.48046875 5.87890625 C-2 6 -2 6 -5 5 C-5 4.34 -5 3.68 -5 3 C-3.35 3 -1.7 3 0 3 C0 2.01 0 1.02 0 0 Z " fill="#8E86E1" transform="translate(15,205)"/>
<path d="M0 0 C5.75 1.875 5.75 1.875 8 3 C8 3.99 8 4.98 8 6 C6.35 6 4.7 6 3 6 C2.67 5.01 2.34 4.02 2 3 C0.35 3 -1.3 3 -3 3 C-2.01 2.01 -1.02 1.02 0 0 Z " fill="#D37CA9" transform="translate(105,62)"/>
<path d="M0 0 C1.65 0 3.3 0 5 0 C5.33 0.66 5.66 1.32 6 2 C8.01669827 3.13350534 8.01669827 3.13350534 10 4 C8.375 5.125 8.375 5.125 6 6 C2.75 5.125 2.75 5.125 0 4 C0 2.68 0 1.36 0 0 Z " fill="#D580AC" transform="translate(108,56)"/>
<path d="M0 0 C0.66 0 1.32 0 2 0 C2 1.32 2 2.64 2 4 C3.65 4 5.3 4 7 4 C7 4.66 7 5.32 7 6 C3.37 6 -0.26 6 -4 6 C-4 5.34 -4 4.68 -4 4 C-2.68 4 -1.36 4 0 4 C0 2.68 0 1.36 0 0 Z " fill="#8B84E1" transform="translate(36,205)"/>
<path d="M0 0 C-0.33 1.65 -0.66 3.3 -1 5 C-2.98 5 -4.96 5 -7 5 C-7 3.68 -7 2.36 -7 1 C-2.25 0 -2.25 0 0 0 Z " fill="#E3DBF7" transform="translate(192,216)"/>
<path d="M0 0 C-0.33 1.65 -0.66 3.3 -1 5 C-2.98 5 -4.96 5 -7 5 C-7 3.68 -7 2.36 -7 1 C-2.25 0 -2.25 0 0 0 Z " fill="#E4DCF6" transform="translate(44,216)"/>
<path d="M0 0 C2.31 0 4.62 0 7 0 C7 0.33 7 0.66 7 1 C5.35 1.33 3.7 1.66 2 2 C3.98 2.99 5.96 3.98 8 5 C8 5.66 8 6.32 8 7 C3.68607774 6.5206753 1.83430453 5.2542015 -1 2 C-0.67 1.34 -0.34 0.68 0 0 Z " fill="#8880E0" transform="translate(104,217)"/>
<path d="M0 0 C2.31 0 4.62 0 7 0 C7.33 0.99 7.66 1.98 8 3 C2.25 7 2.25 7 0 7 C0 6.01 0 5.02 0 4 C1.98 3.67 3.96 3.34 6 3 C6 2.34 6 1.68 6 1 C4.02 1 2.04 1 0 1 C0 0.67 0 0.34 0 0 Z " fill="#8881E0" transform="translate(93,217)"/>
<path d="M0 0 C2.475 0.99 2.475 0.99 5 2 C5.33 1.34 5.66 0.68 6 0 C6 1.65 6 3.3 6 5 C3.03 4.67 0.06 4.34 -3 4 C-3 3.34 -3 2.68 -3 2 C-2.01 2 -1.02 2 0 2 C0 1.34 0 0.68 0 0 Z " fill="#C7BFEF" transform="translate(106,213)"/>
<path d="M0 0 C0.66 0 1.32 0 2 0 C2 1.32 2 2.64 2 4 C3.32 4.33 4.64 4.66 6 5 C4.35 5 2.7 5 1 5 C0.67 6.32 0.34 7.64 0 9 C0 7.68 0 6.36 0 5 C-1.32 5 -2.64 5 -4 5 C-4 4.34 -4 3.68 -4 3 C-2.68 3 -1.36 3 0 3 C0 2.01 0 1.02 0 0 Z " fill="#766EDD" transform="translate(183,211)"/>
<path d="M0 0 C1.65 0 3.3 0 5 0 C4.67 1.32 4.34 2.64 4 4 C2.35 4.33 0.7 4.66 -1 5 C-0.67 3.35 -0.34 1.7 0 0 Z " fill="#DCC7E6" transform="translate(154,167)"/>
<path d="M0 0 C0.33 1.32 0.66 2.64 1 4 C2.32 4.33 3.64 4.66 5 5 C1.7 5 -1.6 5 -5 5 C-3 1 -3 1 0 0 Z " fill="#CAC2EF" transform="translate(20,216)"/>
<path d="M0 0 C1.98 0 3.96 0 6 0 C5.67 1.65 5.34 3.3 5 5 C3.35 5 1.7 5 0 5 C0 3.35 0 1.7 0 0 Z " fill="#B0A8E9" transform="translate(0,211)"/>
<path d="M0 0 C0.66 0 1.32 0 2 0 C1 2 0 4 -1 6 C-0.01 6.33 0.98 6.66 2 7 C2 7.66 2 8.32 2 9 C-0.475 8.01 -0.475 8.01 -3 7 C-2.25 2.25 -2.25 2.25 0 0 Z " fill="#8B84E1" transform="translate(109,206)"/>
<path d="M0 0 C0.99 0.33 1.98 0.66 3 1 C3.1875 3.875 3.1875 3.875 3 7 C0 9 0 9 -2.1875 8.625 C-2.785625 8.41875 -3.38375 8.2125 -4 8 C-2.68 7.34 -1.36 6.68 0 6 C0 4.02 0 2.04 0 0 Z " fill="#7C75DE" transform="translate(191,214)"/>
<path d="M0 0 C0.99 0.33 1.98 0.66 3 1 C3 2.98 3 4.96 3 7 C1.02 7.99 1.02 7.99 -1 9 C-0.67 6.03 -0.34 3.06 0 0 Z " fill="#7E77DE" transform="translate(43,214)"/>
<path d="M0 0 C0.33 0.66 0.66 1.32 1 2 C1.99 2 2.98 2 4 2 C4 2.66 4 3.32 4 4 C1.36 4 -1.28 4 -4 4 C-4 3.34 -4 2.68 -4 2 C-2.68 1.34 -1.36 0.68 0 0 Z " fill="#C7BFEF" transform="translate(97,213)"/>
<path d="M0 0 C0.66 0.33 1.32 0.66 2 1 C1.67 3.31 1.34 5.62 1 8 C0.34 8 -0.32 8 -1 8 C-1.33 5.69 -1.66 3.38 -2 1 C-1.34 0.67 -0.68 0.34 0 0 Z " fill="#6861D9" transform="translate(102,216)"/>
<path d="M0 0 C2.1875 0.3125 2.1875 0.3125 4 1 C3.54625 1.433125 3.0925 1.86625 2.625 2.3125 C0.79975666 4.10798342 0.79975666 4.10798342 -1 7 C-1 6.01 -1 5.02 -1 4 C-1.66 3.67 -2.32 3.34 -3 3 C-1.75 1.4375 -1.75 1.4375 0 0 Z " fill="#D3CAF1" transform="translate(13,214)"/>
<path d="M0 0 C2.62187494 1.04874998 3.79371361 1.64931313 5.25 4.125 C5.4975 4.74375 5.745 5.3625 6 6 C3 6 3 6 1.3125 4.6875 C0 3 0 3 0 0 Z " fill="#8F88E3" transform="translate(156,218)"/>
<path d="M0 0 C0.66 0 1.32 0 2 0 C1.38722388 2.96175123 0.74627478 4.38058783 -1 7 C-1.99 6.67 -2.98 6.34 -4 6 C-2.7260411 3.96166576 -1.38938077 1.96147874 0 0 Z " fill="#766FDD" transform="translate(129,215)"/>
<path d="M0 0 C0.66 0 1.32 0 2 0 C2.33 1.65 2.66 3.3 3 5 C3.99 5.33 4.98 5.66 6 6 C4.35 6.33 2.7 6.66 1 7 C0.67 4.69 0.34 2.38 0 0 Z " fill="#8A82E1" transform="translate(77,206)"/>
<path d="M0 0 C0.66 0.66 1.32 1.32 2 2 C-1.22791555 4.1519437 -2.28400809 4.20086443 -6 4 C-6 3.34 -6 2.68 -6 2 C-4.02 1.34 -2.04 0.68 0 0 Z " fill="#867FE1" transform="translate(211,219)"/>
<path d="M0 0 C0.33 0 0.66 0 1 0 C1 1.98 1 3.96 1 6 C-0.65 5.67 -2.3 5.34 -4 5 C-4 4.34 -4 3.68 -4 3 C-3.01 3 -2.02 3 -1 3 C-0.67 2.01 -0.34 1.02 0 0 Z " fill="#827BDF" transform="translate(4,218)"/>
</svg>
